<?xml version="1.0" encoding="UTF-8"?>
<svg xmlns="http://www.w3.org/2000/svg" version="1.1" xmlns:xlink="http://www.w3.org/1999/xlink" viewBox="0 0 48 48" width="48" height="48">
  <defs>
    <style>
      .cls-1, .cls-2, .cls-3, .cls-4 {
        fill: none;
      }

      .cls-1, .cls-5 {
        stroke-miterlimit: 10;
      }

      .cls-1, .cls-5, .cls-3, .cls-4 {
        stroke: #000;
        stroke-width: 2px;
      }

      .cls-2 {
        stroke-width: 0px;
      }

      .cls-6 {
        clip-path: url(#clippath-1);
      }

      .cls-5 {
        fill: #000;
      }

      .cls-7 {
        clip-path: url(#clippath);
      }

      .cls-3, .cls-4 {
        stroke-linecap: round;
      }

      .cls-4 {
        stroke-linejoin: round;
      }

      .cls-8 {
        display: none;
      }
    </style>
    <clipPath id="clippath">
      <polygon class="cls-2" points="5.7 5.7 42.3 5.7 42.3 42.3 24 42.3 24 24 5.7 24 5.7 5.7"/>
    </clipPath>
    <clipPath id="clippath-1">
      <polygon class="cls-2" points="7.1 7 24 7 27.4 9.7 43.3 9.3 43.3 40.4 24.8 40.4 22.5 38 7.1 38.2 7.1 7"/>
    </clipPath>
  </defs>
  <g id="Layer_1" data-name="Layer 1">
    <rect class="cls-4" x="2.3" y="2.3" width="43.5" height="43.5"/>
  </g>
  <g id="Stove" class="cls-8">
    <g class="cls-7">
      <g>
        <circle class="cls-4" cx="13.7" cy="13.7" r="7"/>
        <circle class="cls-4" cx="34" cy="13.7" r="7"/>
        <circle class="cls-4" cx="13.7" cy="34.1" r="7"/>
        <circle class="cls-4" cx="34" cy="34.1" r="7"/>
      </g>
    </g>
  </g>
  <g id="Microwave" class="cls-8">
    <g class="cls-6">
      <g>
        <path class="cls-3" d="M8.1,3.8s0-6.3,7.2-6.3,7.8,9.7,17.8,9.7,6.9-6.3,6.9-6.3"/>
        <path class="cls-3" d="M8.1,14.3s0-6.3,7.2-6.3,7.8,9.7,17.8,9.7,6.9-6.3,6.9-6.3"/>
        <path class="cls-3" d="M8.1,24.8s0-6.3,7.2-6.3,7.8,9.7,17.8,9.7,6.9-6.3,6.9-6.3"/>
        <path class="cls-3" d="M8.1,35.3s0-6.3,7.2-6.3,7.8,9.7,17.8,9.7,6.9-6.3,6.9-6.3"/>
        <path class="cls-3" d="M8.1,45.9s0-6.3,7.2-6.3,7.8,9.7,17.8,9.7,6.9-6.3,6.9-6.3"/>
      </g>
    </g>
  </g>
  <g id="Oven" class="cls-8">
    <line class="cls-1" x1="2.3" y1="10.6" x2="45.7" y2="10.6"/>
    <circle class="cls-5" cx="24" cy="31.2" r="7.2"/>
  </g>
  <g id="Washer" class="cls-8">
    <circle class="cls-5" cx="24" cy="24" r="7.2"/>
    <circle class="cls-1" cx="24" cy="24" r="17.5"/>
  </g>
  <g id="Drier" class="cls-8">
    <circle class="cls-5" cx="24" cy="34.3" r="7.2"/>
    <circle class="cls-1" cx="32.2" cy="13.5" r="7.2"/>
    <circle class="cls-1" cx="16.8" cy="13.5" r="7.2"/>
  </g>
  <g id="Dishwasher">
    <line class="cls-1" x1="18.9" y1="29.1" x2="2.7" y2="45.4"/>
    <line class="cls-1" x1="45.7" y1="2.3" x2="29.1" y2="18.9"/>
    <path class="cls-1" d="M18.9,29.1c1.3,1.3,3.1,2.1,5.1,2.1s3.8-.8,5.1-2.1c1.3-1.3,2.1-3.1,2.1-5.1s-.8-3.8-2.1-5.1-3.1-2.1-5.1-2.1-3.8.8-5.1,2.1-2.1,3.1-2.1,5.1.8,3.8,2.1,5.1Z"/>
    <line class="cls-1" x1="45.7" y1="45.7" x2="29.1" y2="29.1"/>
    <line class="cls-1" x1="18.9" y1="18.9" x2="2.3" y2="2.3"/>
  </g>
</svg>